<?xml version="1.0" standalone="no"?>
<!DOCTYPE svg PUBLIC "-//W3C//DTD SVG 20010904//EN"
 "http://www.w3.org/TR/2001/REC-SVG-20010904/DTD/svg10.dtd">
<svg version="1.0" xmlns="http://www.w3.org/2000/svg"
 width="225.000000pt" height="225.000000pt" viewBox="0 0 225.000000 225.000000"
 preserveAspectRatio="xMidYMid meet">
<metadata>
Created by potrace 1.14, written by Peter Selinger 2001-2017
</metadata>
<g transform="translate(0.000000,225.000000) scale(0.100000,-0.100000)"
fill="#000000" stroke="none">
<path d="M1103 2158 c-89 -146 -244 -431 -238 -436 9 -10 18 3 144 227 98 171
116 198 126 183 6 -9 62 -106 124 -214 62 -109 117 -198 123 -198 5 0 8 6 5
13 -8 21 -247 441 -256 450 -5 5 -17 -6 -28 -25z"/>
<path d="M233 1987 c-68 -25 -120 -73 -153 -141 -30 -60 -32 -72 -28 -138 3
-40 12 -88 22 -105 64 -124 202 -186 329 -149 31 9 58 20 61 24 2 4 -23 55
-56 112 -33 58 -62 111 -65 118 -4 9 26 12 131 12 l136 0 0 25 c0 83 -80 194
-170 234 -51 23 -154 27 -207 8z"/>
<path d="M1825 1987 c-105 -42 -183 -144 -185 -239 l0 -28 139 0 140 0 -69
-120 -69 -120 32 -17 c22 -12 56 -17 107 -17 64 0 83 4 129 29 105 58 158 153
149 269 -8 100 -68 189 -156 232 -45 22 -174 29 -217 11z"/>
<path d="M456 1021 c-75 -132 -136 -242 -136 -245 0 -3 124 -6 275 -6 177 0
275 4 275 10 0 6 -93 10 -259 10 l-260 0 98 173 c54 94 112 197 130 229 18 32
28 59 22 62 -5 4 -71 -101 -145 -233z"/>
<path d="M1650 1243 c1 -10 56 -115 124 -233 l123 -215 -251 -3 c-147 -1 -254
-6 -260 -12 -7 -7 86 -10 267 -10 152 0 277 3 277 6 0 9 -270 484 -276 484 -2
0 -4 -8 -4 -17z"/>
<path d="M936 530 c-145 -134 -110 -365 69 -458 40 -21 64 -26 120 -25 82 0
128 18 186 70 123 111 124 301 2 414 -24 22 -46 39 -47 37 -2 -1 -34 -56 -71
-121 -37 -65 -68 -117 -70 -115 -1 2 -33 56 -70 121 -36 64 -69 117 -71 117
-2 0 -24 -18 -48 -40z"/>
</g>
</svg>
